<svg width="79" height="79" viewBox="0 0 79 79" fill="none" xmlns="http://www.w3.org/2000/svg">
<g clip-path="url(#clip0_1_107)">
<path fill-rule="evenodd" clip-rule="evenodd" d="M26.0122 0.963379H52.9878C66.8215 0.963379 78.0366 12.1785 78.0366 26.0122V52.9878C78.0366 66.8214 66.8215 78.0365 52.9878 78.0365H26.0122C12.1785 78.0365 0.96344 66.8214 0.96344 52.9878V26.0122C0.96344 12.1785 12.1785 0.963379 26.0122 0.963379Z" stroke="#FEFEFE" stroke-width="1.5"/>
<path d="M46.2166 25.3478C44.2329 24.1744 41.9198 23.501 39.4496 23.501C36.9948 23.501 34.6961 24.1648 32.722 25.3238" stroke="#FEFEFE" stroke-width="1.5"/>
<path d="M51.1645 20.7577C47.8735 18.3463 43.8136 16.9233 39.4224 16.9233C35.0726 16.9233 31.0484 18.3193 27.7747 20.6884" stroke="#FEFEFE" stroke-width="1.5"/>
<path fill-rule="evenodd" clip-rule="evenodd" d="M44.525 61.1126H34.4746C29.2539 61.1126 25.0216 56.8803 25.0216 51.6586V41.6093C25.0216 36.3885 29.2539 32.1553 34.4746 32.1553H44.525C49.7467 32.1553 53.979 36.3885 53.979 41.6093V51.6586C53.979 56.8803 49.7467 61.1126 44.525 61.1126Z" stroke="#FEFEFE" stroke-width="1.5"/>
<path fill-rule="evenodd" clip-rule="evenodd" d="M35.2709 46.6342C35.2709 44.2979 37.164 42.4038 39.5003 42.4038C41.8356 42.4038 43.7297 44.2979 43.7297 46.6342C43.7297 48.9704 41.8356 50.8645 39.5003 50.8645C37.164 50.8645 35.2709 48.9704 35.2709 46.6342Z" stroke="#FEFEFE" stroke-width="1.5"/>
</g>
<defs>
<clipPath id="clip0_1_107">
<rect width="79" height="79" fill="white"/>
</clipPath>
</defs>
</svg>
