<svg width="79" height="79" viewBox="0 0 79 79" fill="none" xmlns="http://www.w3.org/2000/svg">
<path d="M58.4311 47.0627C58.4311 42.4701 54.7133 38.7465 50.1284 38.7465H41.0665L39.8092 22.4648C39.749 21.7334 39.4088 21.0535 38.8596 20.5669C38.3103 20.0802 37.5944 19.8244 36.8611 19.8527C36.1278 19.881 35.4337 20.1913 34.9236 20.7189C34.4135 21.2465 34.1268 21.9506 34.1232 22.6845L34.1482 55.3799L28.3677 50.319C27.2805 49.3663 25.8917 48.8283 24.4463 48.8001C23.001 48.7719 21.5922 49.2553 20.4687 50.1649C20.4687 50.1649 30.598 62.5448 37.8439 65.9793" stroke="#2468FF" stroke-width="2" stroke-linecap="round" stroke-linejoin="round"/>
<path d="M27.4178 28.067V19.1881C27.4168 17.7406 27.9908 16.3519 29.0136 15.3275C30.0363 14.3031 31.4241 13.7269 32.8717 13.7256H41.053C41.7697 13.7262 42.4793 13.868 43.1412 14.1429C43.8032 14.4177 44.4045 14.8203 44.9108 15.3275C45.4172 15.8348 45.8187 16.4368 46.0923 17.0992C46.366 17.7616 46.5066 18.4714 46.5059 19.1881V28.067" stroke="#2468FF" stroke-width="2" stroke-linecap="round" stroke-linejoin="round"/>
<path d="M52.9878 0.963379H26.0122C12.1781 0.963379 0.963409 12.1781 0.963409 26.0122V52.9878C0.963409 66.8218 12.1781 78.0365 26.0122 78.0365H52.9878C66.8219 78.0365 78.0366 66.8218 78.0366 52.9878V26.0122C78.0366 12.1781 66.8219 0.963379 52.9878 0.963379Z" stroke="#2468FF" stroke-width="2"/>
</svg>
