<svg width="79" height="79" viewBox="0 0 79 79" fill="none" xmlns="http://www.w3.org/2000/svg">
<path d="M30.807 38.199L36.5536 43.9314L48.4411 32.0742" stroke="#2468FF" stroke-width="2" stroke-linecap="round" stroke-linejoin="round"/>
<path fill-rule="evenodd" clip-rule="evenodd" d="M40.8363 65.9456C45.532 63.354 62.2819 52.0378 62.9399 22.2008C62.963 21.1218 62.2867 20.117 61.2636 19.7634C54.9108 17.5745 47.5224 16.3076 39.6205 16.3076H39.6282C31.7282 16.3076 24.3388 17.5745 17.9851 19.7634C16.961 20.117 16.2846 21.1218 16.3087 22.2008C16.9677 52.0378 33.7176 63.354 38.4114 65.9447C38.7822 66.1516 39.1997 66.2603 39.6243 66.2603C40.0489 66.2603 40.4665 66.1516 40.8373 65.9447L40.8363 65.9456Z" stroke="#2468FF" stroke-width="2" stroke-linecap="round" stroke-linejoin="round"/>
<path d="M52.9878 0.963379H26.0122C12.1782 0.963379 0.96344 12.1781 0.96344 26.0122V52.9878C0.96344 66.8218 12.1782 78.0365 26.0122 78.0365H52.9878C66.8219 78.0365 78.0366 66.8218 78.0366 52.9878V26.0122C78.0366 12.1781 66.8219 0.963379 52.9878 0.963379Z" stroke="#2468FF" stroke-width="2"/>
</svg>
