<svg width="79" height="78" viewBox="0 0 79 78" fill="none" xmlns="http://www.w3.org/2000/svg">
<path d="M52.9878 0.586426H26.0122C12.1782 0.586426 0.96344 11.666 0.96344 25.3334V51.984C0.96344 65.6514 12.1782 76.731 26.0122 76.731H52.9878C66.8219 76.731 78.0366 65.6514 78.0366 51.984V25.3334C78.0366 11.666 66.8219 0.586426 52.9878 0.586426Z" fill="black" stroke="white"/>
<path d="M31.0923 51.4775H47.1206" stroke="white" stroke-width="1.575" stroke-linecap="round" stroke-linejoin="round"/>
<path d="M33.3813 55.4761H44.8306" stroke="white" stroke-width="1.575" stroke-linecap="round" stroke-linejoin="round"/>
<path d="M42.5405 59.4727H35.6714" stroke="white" stroke-width="1.575" stroke-linecap="round" stroke-linejoin="round"/>
<path d="M47.0532 47.4799C47.0532 45.3288 47.5908 43.211 48.6217 41.3121L52.0109 35.0493C52.0302 35.0121 52.0524 34.9779 52.0707 34.9408L52.0919 34.8998H52.0842C52.7932 33.4096 53.1619 31.7836 53.1642 30.137C53.1642 23.2792 46.8702 17.7188 39.106 17.7188C31.3428 17.7188 25.0488 23.2792 25.0488 30.137C25.0488 31.8264 25.4371 33.4321 26.1279 34.8998H26.1221L26.1433 34.9408C26.1606 34.9779 26.1837 35.014 26.204 35.0512L29.5923 41.3112C30.6208 43.2086 31.1592 45.3275 31.1598 47.4799" stroke="white" stroke-width="1.575" stroke-linecap="round" stroke-linejoin="round"/>
</svg>
