<svg width="79" height="79" viewBox="0 0 79 79" fill="none" xmlns="http://www.w3.org/2000/svg">
<path d="M52.9878 1.58643H26.0122C12.1782 1.58643 0.96344 12.666 0.96344 26.3334V52.984C0.96344 66.6514 12.1782 77.731 26.0122 77.731H52.9878C66.8219 77.731 78.0366 66.6514 78.0366 52.984V26.3334C78.0366 12.666 66.8219 1.58643 52.9878 1.58643Z" stroke="white"/>
<path fill-rule="evenodd" clip-rule="evenodd" d="M54.5698 54.5467C46.2748 62.7427 32.8236 62.7427 24.5276 54.5467C16.2307 46.3516 16.2307 33.0625 24.5276 24.8665C32.8226 16.6695 46.2748 16.6695 54.5698 24.8665C62.8657 33.0615 62.8657 46.3516 54.5698 54.5467Z" stroke="white" stroke-width="1.575" stroke-linecap="round" stroke-linejoin="round"/>
<path fill-rule="evenodd" clip-rule="evenodd" d="M45.9858 49.882C45.1425 50.7266 44.1384 51.3982 43.0313 51.8578C41.9243 52.3175 40.7361 52.5563 39.5352 52.5604C38.3343 52.5645 37.1445 52.3338 36.0343 51.8817C34.924 51.4296 33.9153 50.7649 33.0661 49.926C32.217 49.0871 31.5442 48.0905 31.0866 46.9936C30.6289 45.8967 30.3954 44.7212 30.3996 43.5348C30.4037 42.3484 30.6454 41.1746 31.1107 40.0808C31.576 38.9871 32.2557 37.9951 33.1107 37.162C34.8221 35.4944 37.1315 34.5631 39.5352 34.5713C41.9389 34.5795 44.2418 35.5265 45.9415 37.2057C47.6412 38.8849 48.5997 41.1601 48.608 43.5348C48.6163 45.9096 47.6737 48.1912 45.9858 49.882Z" stroke="white" stroke-width="1.575" stroke-linecap="round" stroke-linejoin="round"/>
<path d="M39.5482 40.5249V46.5213" stroke="white" stroke-width="1.575" stroke-linecap="round" stroke-linejoin="round"/>
<path fill-rule="evenodd" clip-rule="evenodd" d="M41.6947 28.6902C41.1236 29.2441 40.3543 29.5529 39.554 29.5493C38.7537 29.5456 37.9872 29.2299 37.4213 28.6709C36.8554 28.1118 36.5359 27.3545 36.5322 26.5639C36.5285 25.7732 36.841 25.0131 37.4017 24.4489C37.9728 23.895 38.7422 23.5863 39.5425 23.5899C40.3428 23.5935 41.1092 23.9092 41.6751 24.4683C42.241 25.0274 42.5606 25.7846 42.5642 26.5753C42.5679 27.3659 42.2554 28.126 41.6947 28.6902V28.6902Z" stroke="white" stroke-width="1.575" stroke-linecap="round" stroke-linejoin="round"/>
</svg>
